<?xml version="1.0" standalone="no"?>
<!-- Generator: Adobe Fireworks 10, Export SVG Extension by Aaron Beall (http://fireworks.abeall.com) . Version: 0.6.1  -->
<!DOCTYPE svg PUBLIC "-//W3C//DTD SVG 1.1//EN" "http://www.w3.org/Graphics/SVG/1.1/DTD/svg11.dtd">
<svg id="diecuts.fw-Page%201" viewBox="0 0 800 400" style="background-color:#ffffff00" version="1.1"
	xmlns="http://www.w3.org/2000/svg" xmlns:xlink="http://www.w3.org/1999/xlink" xml:space="preserve"
	x="0px" y="0px" width="800px" height="400px"
>
	<path id="p2" d="M 419.68 400 L 800 400 L 800 0 L 392.395 0 C 369.8607 41.8492 344.4067 99.0144 364 141 C 392 201 467.5869 81.4191 484 201 C 498 303 410 229 384 247 C 363.3767 261.2776 410.7021 319.5972 419.68 400 Z" fill="#ff0000"/>
	<path id="p1" d="M 0 0 L 0 400 L 419.68 400 C 410.7021 319.5972 363.3767 261.2776 384 247 C 410 229 498 303 484 201 C 467.5869 81.4191 392 201 364 141 C 344.4067 99.0144 369.8607 41.8492 392.395 0 L 0 0 Z" fill="#000000"/>
</svg>