<?xml version="1.0" standalone="no"?>
<!-- Generator: Adobe Fireworks 10, Export SVG Extension by Aaron Beall (http://fireworks.abeall.com) . Version: 0.6.1  -->
<!DOCTYPE svg PUBLIC "-//W3C//DTD SVG 1.1//EN" "http://www.w3.org/Graphics/SVG/1.1/DTD/svg11.dtd">
<svg id="diecuts.fw-Page%202" viewBox="0 0 800 400" style="background-color:#ffffff00" version="1.1"
	xmlns="http://www.w3.org/2000/svg" xmlns:xlink="http://www.w3.org/1999/xlink" xml:space="preserve"
	x="0px" y="0px" width="800px" height="400px"
>
	<path d="M 284.28 131.465 C 298.8347 160.3017 309.1954 187.0591 300 191 C 279 200 239 170 220 200 C 201 230 238 235 260 220 C 282 205 308 213 300 260 L 299.42 263.475 C 323.1504 273.4687 339.8412 302.8096 320 329 C 295 362 319 373 349 370 C 379 367 395 352 380 320 C 365 288 340 269 380 266 C 396.8933 264.733 418.6009 264.8924 438.045 265.5 C 449.6329 248.2282 471.0605 229.0855 480 214 C 496 187 528 203 520 180 C 512 157 505 144 489 173 C 474.9692 198.4308 454.7872 166.1859 425.755 120.1 C 391.9196 133.9259 375.0121 118.9055 380 80 C 385 41 326 40 300 52 C 274 64 318 85 320 100 C 321.3255 109.9411 308.1591 130.4235 284.28 131.465 Z" stroke="#999999" stroke-width="1" fill="none"/>
	<path d="M 425.755 120.1 C 454.7872 166.1859 474.9692 198.4308 489 173 C 505 144 512 157 520 180 C 528 203 496 187 480 214 C 464 241 408 281 440 300 L 488.955 329.34 C 488.2538 326.1808 487.6013 323.0609 487 320 C 476 264 537 288 540 334 C 543 380 603 300 580 287 C 557 274 546 279 551 240 C 555.1652 207.5112 619.703 224.9893 705.885 212.075 C 711.7324 223.0412 719.395 235.3242 727.435 247.86 C 716.2854 230.4751 705.8605 213.5716 700 200 C 692.437 182.4858 696.1257 170.042 707.53 157.875 C 689.508 147.3501 680.0167 130.6396 730 106 C 795.1812 73.8684 686 40 680 80 C 675.5299 109.8007 654.2443 91.2037 648.685 49.04 C 616.7372 49.0328 566.1213 41.6362 560 60 C 552 84 587 99 566 120 C 545 141 532 118 530 100 C 528 82 538 55 489 80 C 473.3929 87.9628 461.1349 87.3036 451.545 80.605 C 446.9 100.1558 438.3681 114.9072 426 120 L 425.755 120.1 Z" stroke="#999999" stroke-width="1" fill="none"/>
	<path d="M 281.21 323.055 L 283.19 319.68 C 285.1032 314.827 284.1937 308.3874 280 300 C 263 266 248 262 280 260 C 286.603 259.5873 293.2502 260.8768 299.42 263.475 L 300 260 C 308 213 282 205 260 220 C 238 235 201 230 220 200 C 239 170 279 200 300 191 C 309.1954 187.0591 298.8347 160.3017 284.28 131.465 C 272.1279 131.9955 257.201 127.491 240 114 C 228.8238 105.2344 219.1826 99.496 210.48 95.55 C 205.9288 115.6004 173.7381 133.7381 160 120 C 145 105 136 69 109 100 C 96.0981 114.8132 87.5315 157.0258 71.85 187.47 C 85.0446 194.622 100.6882 199.5181 119 200 C 195 202 69.8485 228.932 89 260 C 134 333 124.5192 256.9883 165 270 C 201.8605 281.848 181.5318 286.3336 179.015 329.08 C 184.9237 328.8665 191.8527 329.1853 200 330 C 241.466 334.1466 271.947 334.4723 281.21 323.055 Z" stroke="#999999" stroke-width="1" fill="none"/>
	<path d="M 648.685 49.04 C 654.2443 91.2037 675.5299 109.8007 680 80 C 686 40 795.1812 73.8684 730 106 C 659 141 708 160 731 168 C 748.2382 173.9959 777.2726 128.8763 800 117.26 L 800 0 L 680.06 0 C 680.9821 21.1911 679.4689 41.5427 671 46 C 666.538 48.3484 658.4905 49.0422 648.685 49.04 Z" stroke="#999999" stroke-width="1" fill="none"/>
	<path d="M 0 210.09 C 75.3267 259.7289 84.0533 128.6425 109 100 C 136 69 145 105 160 120 C 175 135 212 112 211 90 C 210 68 192 61 160 67 C 135.1218 71.6647 128.9825 47.9216 133.59 0 L 0 0 L 0 210.09 Z" stroke="#999999" stroke-width="1" fill="none"/>
	<path d="M 451.545 80.605 C 461.1349 87.3036 473.3929 87.9628 489 80 C 538 55 528 82 530 100 C 532 118 545 141 566 120 C 587 99 552 84 560 60 C 568 36 652 56 671 46 C 679.4689 41.5427 680.9821 21.1911 680.06 0 L 451.8 0 C 457.0929 28.2436 456.9837 57.7135 451.545 80.605 Z" stroke="#999999" stroke-width="1" fill="none"/>
	<path d="M 800 117.26 C 777.2726 128.8763 748.2382 173.9959 731 168 C 724.1918 165.632 715.1077 162.3004 707.53 157.875 C 696.1257 170.042 692.437 182.4858 700 200 C 719 244 786 323 770 340 C 754 357 709 367 709 340 C 709 313 666 308 660 340 C 654 372 680 357 700 366 C 711.3582 371.1112 721.1061 385.2531 724.66 400 L 800 400 L 800 117.26 Z" stroke="#999999" stroke-width="1" fill="none"/>
	<path d="M 705.885 212.075 C 619.703 224.9893 555.1652 207.5112 551 240 C 546 279 557 274 580 287 C 603 300 543 380 540 334 C 537 288 476 264 487 320 C 492.0469 345.6933 500.8843 375.3862 508.97 400 L 724.66 400 C 721.1061 385.2531 711.3582 371.1112 700 366 C 680 357 654 372 660 340 C 666 308 709 313 709 340 C 709 367 754 357 770 340 C 784.6233 324.4628 729.9133 257.1375 705.885 212.075 Z" stroke="#999999" stroke-width="1" fill="none"/>
	<path d="M 508.98 400 C 500.9382 375.506 492.1533 345.9823 487.095 320.375 C 487.6765 323.3243 488.2801 326.2993 488.955 329.34 L 440 300 C 425.8789 291.6156 428.8926 279.1414 438.045 265.5 C 418.6009 264.8924 396.8933 264.733 380 266 C 340 269 365 288 380 320 C 395 352 379 367 349 370 C 319 373 295 362 320 329 C 345 296 312 258 280 260 C 248 262 263 266 280 300 C 297 334 260 336 200 330 C 191.8527 329.1853 184.9237 328.8665 179.015 329.08 C 178.0262 345.8835 179.789 368.6004 188.86 400 L 508.98 400 Z" stroke="#999999" stroke-width="1" fill="none"/>
	<path d="M 188.86 400 C 156.7098 288.7168 216.3508 286.5056 165 270 C 124.5192 256.9883 134 333 89 260 C 69.8485 228.932 195 202 119 200 C 100.6882 199.5181 85.0446 194.622 71.85 187.47 C 57.2102 215.8904 36.3682 234.0558 0 210.09 L 0 400 L 188.86 400 Z" stroke="#999999" stroke-width="1" fill="none"/>
	<path d="M 451.8 0 L 133.59 0 C 128.9825 47.9216 135.1218 71.6647 160 67 C 192 61 210 68 211 90 C 211.0841 91.85 210.8977 93.709 210.48 95.55 C 219.1826 99.496 228.8238 105.2344 240 114 C 291 154 322 115 320 100 C 318 85 274 64 300 52 C 326 40 385 41 380 80 C 375 119 392 134 426 120 C 452.8496 108.9443 461.6126 52.3646 451.8 0 Z" stroke="#999999" stroke-width="1" fill="none"/>
</svg>